<svg width="92" height="66" viewBox="0 0 92 66" fill="none" xmlns="http://www.w3.org/2000/svg">
<g clip-path="url(#clip0_540_13176)">
<path d="M92 47.8498C92 46.9417 91.2697 46.1966 90.354 46.1966H89.5311H14.7905C13.8864 46.1966 13.1445 45.4632 13.1445 44.5434V37.9423C13.1445 37.0342 12.4143 36.2891 11.4986 36.2891H1.64596C0.741842 36.2891 0 37.0225 0 37.9423V42.8902C0 42.995 0 43.0998 0.0115913 43.2046C0.0115913 43.2744 0.0115913 43.3559 0.0115913 43.4258C0.289782 46.8137 3.10646 49.4914 6.56066 49.4914H13.1329H15.741H62.0945C62.2799 49.4914 62.419 49.6427 62.419 49.8174V59.1079C62.419 59.1079 62.419 59.1778 62.419 59.2127C62.419 59.2709 62.419 59.3291 62.419 59.399C62.419 62.8218 65.0155 65.6392 68.3306 65.9652C68.4001 65.9652 68.4581 65.9652 68.5276 65.9652C68.6783 65.9652 68.829 65.9885 68.9797 65.9885H75.2274C75.4129 65.9885 75.552 65.8371 75.552 65.6625V49.8174C75.552 49.6311 75.7027 49.4914 75.8765 49.4914H90.3308C91.1886 49.4914 91.8957 48.8161 91.9652 47.9663C91.9652 47.9546 91.9652 47.943 91.9652 47.9313C91.9652 47.9313 91.9652 47.908 91.9652 47.8964C91.9652 47.8731 91.9652 47.8615 91.9652 47.8382L92 47.8498Z" fill="#232335"/>
<path d="M1.64596 13.2023H24.6431H44.3598C45.264 13.2023 46.0058 12.4689 46.0058 11.5491C46.0058 10.6294 45.2755 9.89593 44.3598 9.89593H31.5399C31.3544 9.89593 31.2153 9.74458 31.2153 9.56994V6.60116V0.325983C31.2153 0.139707 31.0646 0 30.8908 0H24.6431C24.6431 0 24.5967 0 24.5851 0C24.5619 0 24.5503 0 24.5271 0C24.446 0 24.3649 0.0116423 24.2721 0.0232845C24.1446 0.0232845 24.0171 0.0349268 23.9012 0.0465691C23.8317 0.0465691 23.7737 0.0698536 23.7042 0.0814959C20.5166 0.535544 18.0708 3.28312 18.0708 6.60116C18.0708 6.63609 18.0708 6.67102 18.0708 6.70595C18.0708 6.74087 18.0708 6.7758 18.0708 6.82237V9.56994C18.0708 9.75622 17.9201 9.89593 17.7463 9.89593H1.64596C0.741842 9.89593 0 10.6294 0 11.5491C0 12.4689 0.730251 13.2023 1.64596 13.2023Z" fill="#232335"/>
<path d="M1.64596 33.0058H17.7463C17.9317 33.0058 18.0708 33.1571 18.0708 33.3318V36.0793C18.0708 36.0793 18.0708 36.1492 18.0708 36.1958C18.0708 36.2307 18.0708 36.2656 18.0708 36.3005C18.0708 39.6302 20.5166 42.3662 23.7042 42.8318C23.7621 42.8318 23.8317 42.8551 23.8896 42.8668C24.0171 42.8784 24.1446 42.8901 24.2721 42.8901C24.3533 42.8901 24.4344 42.9017 24.5156 42.9133C24.5387 42.9133 24.5503 42.9133 24.5735 42.9133C24.5967 42.9133 24.6199 42.9133 24.6315 42.9133H30.8792C31.0646 42.9133 31.2037 42.762 31.2037 42.5874V36.3238V33.355C31.2037 33.1688 31.3544 33.0291 31.5283 33.0291H44.3482C45.2524 33.0291 45.9942 32.2956 45.9942 31.3759C45.9942 30.4561 45.264 29.7227 44.3482 29.7227H1.64596C0.741842 29.7227 0 30.4561 0 31.3759C0 32.2956 0.730251 33.0291 1.64596 33.0291V33.0058Z" fill="#232335"/>
<path d="M37.7876 28.0461C41.4156 28.0461 44.3598 25.0889 44.3598 21.4449C44.3598 17.8009 41.4156 14.8438 37.7876 14.8438H8.21819C4.59012 14.8438 1.64594 17.8009 1.64594 21.4449C1.64594 25.0889 4.59012 28.0461 8.21819 28.0461H14.7904H31.2153H37.7876ZM27.935 24.7513H18.0708C16.2509 24.7513 14.7904 23.2728 14.7904 21.4566C14.7904 19.6404 16.2625 18.1618 18.0708 18.1618H27.9234C29.7432 18.1618 31.2037 19.6404 31.2037 21.4566C31.2037 23.2728 29.7316 24.7513 27.9234 24.7513H27.935Z" fill="#232335"/>
<path d="M82.1473 42.9015C85.7771 42.9015 88.7196 39.9461 88.7196 36.3004C88.7196 32.6547 85.7771 29.6992 82.1473 29.6992C78.5176 29.6992 75.5751 32.6547 75.5751 36.3004C75.5751 39.9461 78.5176 42.9015 82.1473 42.9015Z" fill="#EF3F61"/>
<path d="M44.3598 39.607C43.4557 39.607 42.7139 40.3405 42.7139 41.2602C42.7139 42.1683 43.4441 42.9134 44.3598 42.9134H46.0058C60.5413 42.7737 73.9524 39.4906 75.4824 25.7178C75.5404 25.4035 75.5751 25.0891 75.5751 24.7632V23.11C75.5751 19.4659 72.631 16.5088 69.0029 16.5088C65.3748 16.5088 62.4306 19.4659 62.4306 23.11V24.7632L62.3959 26.754C62.3959 34.8803 53.4822 39.1879 45.8435 39.607H44.3598Z" fill="#232335"/>
</g>
<defs>
<clipPath id="clip0_540_13176">
<rect width="92" height="66" fill="white"/>
</clipPath>
</defs>
</svg>
