<svg width="24" height="24" viewBox="0 0 24 24" fill="none" xmlns="http://www.w3.org/2000/svg">
<path d="M19.778 13.996L20.6036 14.8211L18.4234 17.0014L18.1288 17.2959L18.4233 17.5906L20.9568 20.1249L20.132 20.9497L17.5976 18.4154L17.3029 18.1207L17.0083 18.4154L14.8288 20.5958L14.0032 19.7708L15.1227 18.6505L15.4172 18.3558L15.1226 18.0613L12.2936 15.2333L11.9989 14.9388L11.7044 15.2334L8.87635 18.0614L8.58172 18.356L8.87635 18.6506L9.99672 19.771L9.17198 20.5957L6.99161 18.4154L6.69698 18.1207L6.40235 18.4154L3.86798 20.9497L3.04318 20.1249L5.57766 17.5896L5.87224 17.2949L5.57755 17.0003L3.39729 14.8209L4.22208 13.9962L5.34146 15.1147L5.63614 15.4092L5.93066 15.1146L8.75766 12.2866L9.05218 11.9919L8.75761 11.6974L3.41945 6.35922L3.41612 3.41702L6.37222 3.41952L11.7033 8.7516L11.9979 9.04626L12.2926 8.75165L17.6284 3.41681L20.5835 3.41931L20.5852 6.35349L15.2404 11.6973L14.9457 11.9919L15.2403 12.2866L18.0683 15.1156L18.3628 15.4102L18.6575 15.1157L19.778 13.996ZM10.1706 13.1114L9.87598 12.8167L9.58135 13.1114L6.75335 15.9394L6.45852 16.2342L6.75356 16.5288L7.46156 17.2358L7.75624 17.5301L8.05066 17.2356L10.8777 14.4076L11.1722 14.1129L10.8776 13.8184L10.1706 13.1114ZM19.4166 5.001V4.58433H19H18.283H18.1104L17.9884 4.70634L13.1184 9.57534L12.8239 9.86976L13.1181 10.1644L13.8241 10.8714L14.1187 11.1664L14.4135 10.8717L19.2945 5.99269L19.4166 5.87064V5.698V5.001ZM5.00056 4.58433L4.58331 4.58375V5.001V5.701V5.87359L4.70535 5.99563L15.9464 17.2366L16.241 17.5313L16.5356 17.2366L17.2426 16.5296L17.5372 16.235L17.2426 15.9404L6.00961 4.70737L5.88781 4.58557L5.71556 4.58533L5.00056 4.58433Z" fill="#BDBDC9" stroke="#BDBDC9" stroke-width="0.833333"/>
</svg>
