<svg width="24" height="24" viewBox="0 0 24 24" fill="none" xmlns="http://www.w3.org/2000/svg">
<path d="M6.2829 13.0905C5.42765 13.6764 5 14.646 5 15.9994C5 18.0294 7.48765 21.4994 9.7309 21.4994C11.9741 21.4994 13.2751 21.4994 15.4707 21.4994C17.6664 21.4994 19 19.5741 19 18.0294C19 15.8542 19 13.6791 19 11.5039C19 10.6755 18.3284 10.0039 17.5 10.0039H17.4954C16.6695 10.0039 16 10.6735 16 11.4994" stroke="#BDBDC9" stroke-width="1.66667" stroke-linecap="round"/>
<path d="M6.99051 14.2224V4.00269C6.99051 3.17494 7.66151 2.50391 8.48926 2.50391C8.49066 2.50391 8.49206 2.50391 8.49341 2.50391C9.32411 2.50621 9.99636 3.18029 9.99636 4.01101V11.7958" stroke="#BDBDC9" stroke-width="1.66667" stroke-linecap="round"/>
<path d="M9.99634 11.5042V9.50775C9.99634 8.67505 10.6714 8 11.5041 8C12.3368 8 13.0118 8.67505 13.0118 9.50775V11.5042" stroke="#BDBDC9" stroke-width="1.66667" stroke-linecap="round" stroke-linejoin="round"/>
<path d="M13 11.3582V10.002C13 9.17355 13.6715 8.50195 14.5 8.50195C15.3285 8.50195 16 9.17355 16 10.002V11.502" stroke="#BDBDC9" stroke-width="1.66667" stroke-linecap="round" stroke-linejoin="round"/>
</svg>
