<svg width="24" height="24" viewBox="0 0 24 24" fill="none" xmlns="http://www.w3.org/2000/svg">
<path d="M3 8.70594C3 8.39249 3 8.23577 3.01316 8.10377C3.14004 6.83061 4.15314 5.82343 5.43379 5.69729C5.56657 5.68421 5.73272 5.68421 6.06502 5.68421C6.19307 5.68421 6.25709 5.68421 6.31145 5.68094C7.00555 5.63915 7.61336 5.20363 7.87273 4.56221C7.89304 4.51198 7.91203 4.45535 7.95 4.34211C7.98797 4.22886 8.00696 4.17223 8.02727 4.122C8.28664 3.48058 8.89445 3.04506 9.58855 3.00327C9.64291 3 9.70295 3 9.82302 3H14.177C14.2971 3 14.3571 3 14.4114 3.00327C15.1055 3.04506 15.7134 3.48058 15.9727 4.122C15.993 4.17223 16.012 4.22886 16.05 4.34211C16.088 4.45535 16.107 4.51198 16.1273 4.56221C16.3866 5.20363 16.9944 5.63915 17.6886 5.68094C17.7429 5.68421 17.8069 5.68421 17.935 5.68421C18.2673 5.68421 18.4334 5.68421 18.5662 5.69729C19.8469 5.82343 20.86 6.83061 20.9868 8.10377C21 8.23577 21 8.39249 21 8.70594V15.7053C21 17.2086 21 17.9602 20.7057 18.5344C20.4469 19.0395 20.0338 19.4501 19.5258 19.7074C18.9482 20 18.1921 20 16.68 20H7.32C5.80786 20 5.05179 20 4.47423 19.7074C3.96619 19.4501 3.55314 19.0395 3.29428 18.5344C3 17.9602 3 17.2086 3 15.7053V8.70594Z" stroke="#BDBDC9" stroke-width="1.5" stroke-linecap="round" stroke-linejoin="round"/>
<path d="M12 15.9737C13.9882 15.9737 15.6 14.3713 15.6 12.3947C15.6 10.4181 13.9882 8.81579 12 8.81579C10.0118 8.81579 8.4 10.4181 8.4 12.3947C8.4 14.3713 10.0118 15.9737 12 15.9737Z" stroke="#BDBDC9" stroke-width="1.5" stroke-linecap="round" stroke-linejoin="round"/>
</svg>
