<svg width="20" height="20" viewBox="0 0 20 20" fill="none" xmlns="http://www.w3.org/2000/svg">
<path d="M5 6.36304H10M5 9.77588H13M7.68375 15.6265H14.2C15.8802 15.6265 16.7202 15.6265 17.362 15.3076C17.9265 15.0272 18.3854 14.5797 18.673 14.0292C19 13.4035 19 12.5843 19 10.946V5.68047C19 4.04215 19 3.22299 18.673 2.59724C18.3854 2.04681 17.9265 1.5993 17.362 1.31884C16.7202 1 15.8802 1 14.2 1H5.8C4.11984 1 3.27976 1 2.63803 1.31884C2.07354 1.5993 1.6146 2.04681 1.32698 2.59724C1 3.22299 1 4.04215 1 5.68047V17.9038C1 18.4234 1 18.6832 1.10923 18.8166C1.20422 18.9327 1.34827 19.0002 1.50054 19C1.67563 18.9998 1.88367 18.8375 2.29976 18.5129L4.68521 16.6521C5.17252 16.272 5.41617 16.0819 5.68749 15.9467C5.9282 15.8268 6.18443 15.7392 6.44921 15.6862C6.74767 15.6265 7.0597 15.6265 7.68375 15.6265Z" stroke="#8A8A8A" stroke-width="1.5" stroke-linecap="round" stroke-linejoin="round"/>
</svg>
