<svg width="18" height="18" viewBox="0 0 18 18" fill="none" xmlns="http://www.w3.org/2000/svg">
<path d="M2.25 15.75H13.668M8.47799 12.117L5.364 12.6775L5.88299 9.52201L12.8687 2.55704C12.9652 2.45975 13.08 2.38253 13.2065 2.32983C13.333 2.27713 13.4687 2.25 13.6057 2.25C13.7427 2.25 13.8784 2.27713 14.0049 2.32983C14.1314 2.38253 14.2462 2.45975 14.3427 2.55704L15.443 3.65732C15.5403 3.75381 15.6175 3.86862 15.6702 3.99511C15.7229 4.1216 15.75 4.25727 15.75 4.3943C15.75 4.53132 15.7229 4.667 15.6702 4.79349C15.6175 4.91998 15.5403 5.03478 15.443 5.13127L8.47799 12.117Z" stroke="#8A8A8A" stroke-width="1.5" stroke-linecap="round" stroke-linejoin="round"/>
</svg>
