<svg width="24" height="18" viewBox="0 0 24 18" fill="none" xmlns="http://www.w3.org/2000/svg">
<path d="M1.78145 9.76412C1.63619 9.53308 1.56356 9.41756 1.5229 9.23937C1.49237 9.10554 1.49237 8.89446 1.5229 8.76063C1.56356 8.58244 1.63619 8.46692 1.78145 8.23588C2.98184 6.32661 6.55489 1.5 12 1.5C17.4451 1.5 21.0182 6.32661 22.2185 8.23588C22.3638 8.46692 22.4364 8.58244 22.4771 8.76063C22.5076 8.89446 22.5076 9.10554 22.4771 9.23937C22.4364 9.41756 22.3638 9.53308 22.2185 9.76412C21.0182 11.6734 17.4451 16.5 12 16.5C6.55489 16.5 2.98184 11.6734 1.78145 9.76412Z" stroke="#8A8A8A" stroke-width="1.5" stroke-linecap="round" stroke-linejoin="round"/>
<path d="M12 12.2143C13.7672 12.2143 15.1999 10.7752 15.1999 9C15.1999 7.2248 13.7672 5.78571 12 5.78571C10.2328 5.78571 8.80013 7.2248 8.80013 9C8.80013 10.7752 10.2328 12.2143 12 12.2143Z" stroke="#8A8A8A" stroke-width="1.5" stroke-linecap="round" stroke-linejoin="round"/>
</svg>
