<svg width="24" height="24" viewBox="0 0 24 24" fill="none" xmlns="http://www.w3.org/2000/svg">
<path d="M1.78145 12.7641C1.63619 12.5331 1.56356 12.4176 1.5229 12.2394C1.49237 12.1055 1.49237 11.8945 1.5229 11.7606C1.56356 11.5824 1.63619 11.4669 1.78145 11.2359C2.98184 9.32661 6.55489 4.5 12 4.5C17.4451 4.5 21.0182 9.32661 22.2185 11.2359C22.3638 11.4669 22.4364 11.5824 22.4771 11.7606C22.5076 11.8945 22.5076 12.1055 22.4771 12.2394C22.4364 12.4176 22.3638 12.5331 22.2185 12.7641C21.0182 14.6734 17.4451 19.5 12 19.5C6.55489 19.5 2.98184 14.6734 1.78145 12.7641Z" stroke="#8A8A8A" stroke-width="1.5" stroke-linecap="round" stroke-linejoin="round"/>
<path d="M12 15.2143C13.7672 15.2143 15.1999 13.7752 15.1999 12C15.1999 10.2248 13.7672 8.78571 12 8.78571C10.2328 8.78571 8.80013 10.2248 8.80013 12C8.80013 13.7752 10.2328 15.2143 12 15.2143Z" stroke="#8A8A8A" stroke-width="1.5" stroke-linecap="round" stroke-linejoin="round"/>
</svg>
