<svg width="18" height="18" viewBox="0 0 18 18" fill="none" xmlns="http://www.w3.org/2000/svg">
<path d="M12.7333 17H4.49455C3.95605 17 3.6868 17 3.56212 16.8935C3.45394 16.8011 3.39653 16.6625 3.40769 16.5207C3.42055 16.3572 3.61094 16.1668 3.99172 15.7861L11.5499 8.22788C11.9019 7.87587 12.0779 7.69986 12.2809 7.63392C12.4594 7.57591 12.6517 7.57591 12.8302 7.63392C13.0332 7.69986 13.2092 7.87587 13.5612 8.22788L17 11.6667V12.7333M12.7333 17C14.2268 17 14.9735 17 15.544 16.7094C16.0457 16.4537 16.4537 16.0457 16.7094 15.544C17 14.9735 17 14.2268 17 12.7333M12.7333 17H5.26667C3.77319 17 3.02646 17 2.45603 16.7094C1.95426 16.4537 1.54631 16.0457 1.29065 15.544C1 14.9735 1 14.2268 1 12.7333V5.26667C1 3.77319 1 3.02646 1.29065 2.45603C1.54631 1.95426 1.95426 1.54631 2.45603 1.29065C3.02646 1 3.77319 1 5.26667 1H12.7333C14.2268 1 14.9735 1 15.544 1.29065C16.0457 1.54631 16.4537 1.95426 16.7094 2.45603C17 3.02646 17 3.77319 17 5.26667V12.7333M7.66667 5.88889C7.66667 6.87073 6.87073 7.66667 5.88889 7.66667C4.90705 7.66667 4.11111 6.87073 4.11111 5.88889C4.11111 4.90705 4.90705 4.11111 5.88889 4.11111C6.87073 4.11111 7.66667 4.90705 7.66667 5.88889Z" stroke="#C4C4C4" stroke-width="1.5" stroke-linecap="round" stroke-linejoin="round"/>
</svg>
