<svg width="18" height="18" viewBox="0 0 18 18" fill="none" xmlns="http://www.w3.org/2000/svg">
<path d="M13.9 9.1579V6.02451C13.9 4.96583 13.9 4.4365 13.6838 4.03213C13.4937 3.67645 13.1903 3.38726 12.8171 3.20603C12.3928 3 11.8374 3 10.7267 3H5.17333C4.06256 3 3.50718 3 3.08292 3.20603C2.70973 3.38726 2.40632 3.67645 2.21617 4.03213C2 4.4365 2 4.96583 2 6.02451V13.9232C2 14.259 2 14.4268 2.07221 14.5131C2.13501 14.5881 2.23024 14.6317 2.33091 14.6316C2.44666 14.6315 2.5842 14.5266 2.85928 14.3168L4.43634 13.1144C4.7585 12.8687 4.91958 12.7459 5.09895 12.6586C5.25809 12.5811 5.42748 12.5244 5.60254 12.4902C5.79985 12.4516 6.00613 12.4516 6.4187 12.4516H9M5 6.02451L11 6.02451M11.5 11.5H13.5M13.4008 14.7177H10.8667C10.2133 14.7177 9.88657 14.7177 9.63701 14.5965C9.41749 14.4899 9.23901 14.3198 9.12716 14.1105C9 13.8727 9 13.5613 9 12.9385V10.937C9 10.3143 9 10.0029 9.12716 9.76503C9.23901 9.55581 9.41749 9.3857 9.63701 9.27909C9.88657 9.1579 10.2133 9.1579 10.8667 9.1579H14.1333C14.7867 9.1579 15.1134 9.1579 15.363 9.27909C15.5825 9.3857 15.761 9.55581 15.8728 9.76503C16 10.0029 16 10.3143 16 10.937V15.5833C16 15.7808 16 15.8796 15.9575 15.9303C15.9206 15.9744 15.8646 16.0001 15.8053 16C15.7373 15.9999 15.6563 15.9382 15.4945 15.8149L14.5669 15.1075C14.3774 14.963 14.2826 14.8908 14.1771 14.8394C14.0835 14.7938 13.9838 14.7605 13.8809 14.7404C13.7648 14.7177 13.6435 14.7177 13.4008 14.7177Z" stroke="#C4C4C4" stroke-width="1.5" stroke-linecap="round" stroke-linejoin="round"/>
</svg>
