<svg width="24" height="24" viewBox="0 0 24 24" fill="none" xmlns="http://www.w3.org/2000/svg">
<path d="M7.61448 21V11.1M20.9672 12.4106C21.2252 10.775 19.9276 9.3 18.2307 9.3H14.9977C14.488 9.3 14.0748 8.89706 14.0748 8.4V5.21926C14.0748 3.99359 13.0559 3 11.799 3C11.4993 3 11.2276 3.17217 11.1059 3.43931L7.85807 10.5655C7.70994 10.8905 7.37944 11.1 7.01472 11.1H4.84579C3.82639 11.1 3 11.9059 3 12.9V19.2C3 20.1941 3.82639 21 4.84579 21H17.2368C18.6034 21 19.7655 20.0277 19.9733 18.7106M20.9672 12.4106L20.4703 15.5606M20.9672 12.4106H15.9206M19.9733 18.7106L20.4703 15.5606M19.9733 18.7106H15.9206M20.4703 15.5606H15.9206" stroke="#2D2D2D" stroke-width="1.5" stroke-linecap="round" stroke-linejoin="round"/>
</svg>
