<svg width="20" height="20" viewBox="0 0 20 20" fill="none" xmlns="http://www.w3.org/2000/svg">
<path d="M4.1665 5.99967H5.4628M5.4628 5.99967H15.8332M5.4628 5.99967V15.333C5.4628 15.6866 5.59937 16.0258 5.84248 16.2758C6.08558 16.5259 6.4153 16.6663 6.7591 16.6663H13.2406C13.5844 16.6663 13.9141 16.5259 14.1572 16.2758C14.4003 16.0258 14.5369 15.6866 14.5369 15.333V5.99967H5.4628ZM7.40724 5.99967V4.66634C7.40724 4.31272 7.54382 3.97358 7.78692 3.72353C8.03002 3.47348 8.35974 3.33301 8.70354 3.33301H11.2961C11.6399 3.33301 11.9697 3.47348 12.2128 3.72353C12.4559 3.97358 12.5924 4.31272 12.5924 4.66634V5.99967M8.70354 9.33301V13.333M11.2961 9.33301V13.333" stroke="#8A8A8A" stroke-width="1.5" stroke-linecap="round" stroke-linejoin="round"/>
</svg>
