<svg width="24" height="24" viewBox="0 0 24 24" fill="none" xmlns="http://www.w3.org/2000/svg">
<path d="M9 11L11 13L15 9M9.2 17H14.8C15.9201 17 16.4802 17 16.908 16.782C17.2843 16.5903 17.5903 16.2843 17.782 15.908C18 15.4802 18 14.9201 18 13.8V8.2C18 7.0799 18 6.51984 17.782 6.09202C17.5903 5.71569 17.2843 5.40973 16.908 5.21799C16.4802 5 15.9201 5 14.8 5H9.2C8.0799 5 7.51984 5 7.09202 5.21799C6.71569 5.40973 6.40973 5.71569 6.21799 6.09202C6 6.51984 6 7.0799 6 8.2V13.8C6 14.9201 6 15.4802 6.21799 15.908C6.40973 16.2843 6.71569 16.5903 7.09202 16.782C7.51984 17 8.0799 17 9.2 17Z" stroke="#3A3A59" stroke-width="1.5" stroke-linecap="round" stroke-linejoin="round"/>
<path d="M21 12V19C21 19.5523 20.5523 20 20 20H4C3.44772 20 3 19.5523 3 19V12" stroke="#3A3A59" stroke-width="1.5" stroke-linecap="round" stroke-linejoin="round"/>
</svg>
