<svg width="20" height="17" viewBox="0 0 20 17" fill="none" xmlns="http://www.w3.org/2000/svg">
<path d="M7 7L9 9L13 5M7.2 13H12.8C13.9201 13 14.4802 13 14.908 12.782C15.2843 12.5903 15.5903 12.2843 15.782 11.908C16 11.4802 16 10.9201 16 9.8V4.2C16 3.0799 16 2.51984 15.782 2.09202C15.5903 1.71569 15.2843 1.40973 14.908 1.21799C14.4802 1 13.9201 1 12.8 1H7.2C6.0799 1 5.51984 1 5.09202 1.21799C4.71569 1.40973 4.40973 1.71569 4.21799 2.09202C4 2.51984 4 3.0799 4 4.2V9.8C4 10.9201 4 11.4802 4.21799 11.908C4.40973 12.2843 4.71569 12.5903 5.09202 12.782C5.51984 13 6.0799 13 7.2 13Z" stroke="#C4C4C4" stroke-width="1.5" stroke-linecap="round" stroke-linejoin="round"/>
<path d="M19 8V15C19 15.5523 18.5523 16 18 16H2C1.44772 16 1 15.5523 1 15V8" stroke="#C4C4C4" stroke-width="1.5" stroke-linecap="round" stroke-linejoin="round"/>
</svg>
