<svg width="24" height="24" viewBox="0 0 24 24" fill="none" xmlns="http://www.w3.org/2000/svg">
<g clip-path="url(#clip0_942_22803)">
<path d="M3 21H18.224M11.304 16.156L7.15199 16.9034L7.84399 12.696L17.1583 3.40938C17.287 3.27966 17.44 3.1767 17.6087 3.10644C17.7773 3.03618 17.9582 3 18.1409 3C18.3236 3 18.5045 3.03618 18.6732 3.10644C18.8418 3.1767 18.9949 3.27966 19.1236 3.40938L20.5906 4.87642C20.7203 5.00508 20.8233 5.15815 20.8936 5.32681C20.9638 5.49546 21 5.67636 21 5.85906C21 6.04176 20.9638 6.22266 20.8936 6.39131C20.8233 6.55997 20.7203 6.71304 20.5906 6.8417L11.304 16.156Z" stroke="#BDBDC9" stroke-width="2" stroke-linecap="round" stroke-linejoin="round"/>
</g>
<defs>
<clipPath id="clip0_942_22803">
<rect width="20" height="20" fill="white" transform="translate(2 2)"/>
</clipPath>
</defs>
</svg>
